<?xml version="1.0" encoding="UTF-8" standalone="no"?>
<!-- Created with Inkscape (http://www.inkscape.org/) -->

<svg
   width="74mm"
   height="105mm"
   viewBox="0 0 74 105"
   version="1.1"
   id="svg5"
   xml:space="preserve"
   inkscape:version="1.2.2 (732a01da63, 2022-12-09)"
   sodipodi:docname="freesound-promo-qr.svg"
   inkscape:export-filename="./freesound-promo-qr.png"
   inkscape:export-xdpi="96"
   inkscape:export-ydpi="96"
   xmlns:inkscape="http://www.inkscape.org/namespaces/inkscape"
   xmlns:sodipodi="http://sodipodi.sourceforge.net/DTD/sodipodi-0.dtd"
   xmlns="http://www.w3.org/2000/svg"
   xmlns:svg="http://www.w3.org/2000/svg"><sodipodi:namedview
     id="namedview7"
     pagecolor="#ffffff"
     bordercolor="#eeeeee"
     borderopacity="1"
     inkscape:showpageshadow="0"
     inkscape:pageopacity="1"
     inkscape:pagecheckerboard="0"
     inkscape:deskcolor="#505050"
     inkscape:document-units="mm"
     showgrid="false"
     inkscape:zoom="0.8409652"
     inkscape:cx="-52.915388"
     inkscape:cy="315.11411"
     inkscape:current-layer="layer1" /><defs
     id="defs2" /><g
     inkscape:label="Layer 1"
     inkscape:groupmode="layer"
     id="layer1"><g
       id="g428"
       transform="translate(0,2.5583916)"><path
         d="m 58.551183,73.113484 h 4.10505 v 2.052525 h -4.10505 z m -8.210101,0 h 2.052525 v 2.052525 h -2.052525 z m -8.210101,0 h 6.157575 v 2.052525 h -6.157575 z m -10.262627,0 h 6.157576 v 2.052525 h -6.157576 z m -20.525253,0 h 14.367677 v 2.052525 H 11.343101 Z m 47.208082,-2.052525 h 2.052525 v 2.052525 h -2.052525 z m -6.157576,0 h 4.105051 v 2.052525 h -4.105051 z m -14.367677,0 h 10.262626 v 2.052525 H 38.02593 Z m -6.157576,0 h 2.052525 v 2.052525 h -2.052525 z m -4.105051,0 h 2.052526 v 2.052525 h -2.052526 z m -4.10505,0 h 2.052525 v 2.052525 h -2.052525 z m -12.315152,0 h 2.052525 v 2.052525 h -2.052525 z m 49.260607,-2.052525 h 2.052525 v 2.052525 h -2.052525 z m -10.262626,0 h 6.157576 v 2.052525 h -6.157576 z m -4.105051,0 h 2.052525 v 2.052525 h -2.052525 z m -6.157576,0 h 4.105051 v 2.052525 h -4.105051 z m -12.315152,0 h 6.157576 v 2.052525 h -6.157576 z m -4.10505,0 h 2.052525 v 2.052525 h -2.052525 z m -8.210101,0 h 6.157575 v 2.052525 h -6.157575 z m -4.105051,0 h 2.052525 v 2.052525 h -2.052525 z m 45.155557,-2.052526 h 2.052525 v 2.052526 h -2.052525 z m -6.157576,0 h 4.10505 v 2.052526 h -4.10505 z m -6.157576,0 h 2.052525 v 2.052526 h -2.052525 z m -10.262627,0 h 8.210102 v 2.052526 h -8.210102 z m -4.10505,0 h 2.052525 v 2.052526 h -2.052525 z m -6.157576,0 h 2.052525 v 2.052526 h -2.052525 z m -8.210101,0 h 6.157575 v 2.052526 h -6.157575 z m -4.105051,0 h 2.052525 v 2.052526 h -2.052525 z m 47.208082,-2.052525 h 4.10505 v 2.052525 h -4.10505 z m -14.367677,0 h 10.262626 v 2.052525 H 44.183506 Z m -4.105051,0 h 2.052526 v 2.052525 h -2.052526 z m -4.10505,0 h 2.052525 v 2.052525 h -2.052525 z m -8.210102,0 h 2.052526 v 2.052525 h -2.052526 z m -4.10505,0 h 2.052525 v 2.052525 h -2.052525 z m -8.210101,0 h 6.157575 v 2.052525 h -6.157575 z m -4.105051,0 h 2.052525 v 2.052525 h -2.052525 z m 47.208082,-2.052525 h 2.052525 v 2.052525 h -2.052525 z m -6.157576,0 h 4.105051 v 2.052525 h -4.105051 z m -8.210101,0 h 2.052525 v 2.052525 h -2.052525 z m -8.210101,0 h 4.10505 v 2.052525 h -4.10505 z m -6.157576,0 h 4.10505 v 2.052525 h -4.10505 z m -6.157576,0 h 2.052525 v 2.052525 h -2.052525 z m -12.315152,0 h 2.052525 v 2.052525 h -2.052525 z m 47.208082,-2.052526 h 4.10505 v 2.052526 h -4.10505 z m -6.157576,0 h 2.052525 v 2.052526 h -2.052525 z m -4.105051,0 h 2.052526 v 2.052526 h -2.052526 z m -10.262626,0 h 8.210101 v 2.052526 H 38.02593 Z m -4.105051,0 h 2.052526 v 2.052526 h -2.052526 z m -6.157576,0 h 2.052526 v 2.052526 h -2.052526 z m -16.420202,0 h 14.367677 v 2.052526 H 11.343101 Z m 41.050506,-2.052525 h 10.262626 v 2.052525 H 52.393607 Z m -8.210101,0 h 2.052525 v 2.052525 h -2.052525 z m -8.210101,0 h 6.157576 v 2.052525 h -6.157576 z m -4.105051,0 h 2.052525 v 2.052525 h -2.052525 z m -4.105051,0 h 2.052526 v 2.052525 h -2.052526 z m 16.420203,-2.052525 h 12.315152 v 2.052525 H 44.183506 Z m -10.262627,0 h 2.052526 v 2.052525 h -2.052526 z m -6.157576,0 h 2.052526 v 2.052525 h -2.052526 z m -4.10505,0 h 2.052525 v 2.052525 h -2.052525 z m -6.157576,0 h 2.052525 v 2.052525 h -2.052525 z m -6.157576,0 h 2.052525 v 2.052525 h -2.052525 z m 47.208082,-2.052525 h 2.052525 v 2.052525 h -2.052525 z m -4.105051,0 h 2.052526 v 2.052525 h -2.052526 z m -20.525253,0 h 12.315152 v 2.052525 H 33.920879 Z m -20.525253,0 h 6.157576 v 2.052525 h -6.157576 z m 43.103032,-2.052526 h 6.157575 v 2.052526 h -6.157575 z m -10.262627,0 h 4.105051 v 2.052526 h -4.105051 z m -10.262626,0 h 6.157576 v 2.052526 h -6.157576 z m -4.105051,0 h 2.052525 v 2.052526 h -2.052525 z m -8.210101,0 h 4.10505 v 2.052526 h -4.10505 z m -6.157576,0 h 2.052525 v 2.052526 h -2.052525 z m -6.157576,0 h 2.052525 v 2.052526 h -2.052525 z m 49.260607,-2.052525 h 2.052525 v 2.052525 h -2.052525 z m -6.157576,0 h 2.052526 v 2.052525 h -2.052526 z m -10.262626,0 h 6.157576 v 2.052525 h -6.157576 z m -6.157576,0 h 2.052525 v 2.052525 H 38.02593 Z m -12.315152,0 h 8.210101 v 2.052525 h -8.210101 z m -4.105051,0 h 2.052526 v 2.052525 h -2.052526 z m -6.157575,0 h 2.052525 v 2.052525 h -2.052525 z m 43.103031,-2.052525 h 4.10505 v 2.052525 h -4.10505 z m -4.105051,0 h 2.052526 v 2.052525 h -2.052526 z m -14.367677,0 h 12.315152 v 2.052525 H 40.078455 Z m -4.10505,0 h 2.052525 v 2.052525 h -2.052525 z m -8.210102,0 h 6.157576 v 2.052525 h -6.157576 z m -8.210101,0 h 6.157576 v 2.052525 h -6.157576 z m -6.157576,0 h 4.105051 v 2.052525 h -4.105051 z m 45.155557,-2.052526 h 2.052525 v 2.052526 h -2.052525 z m -8.210101,0 h 2.052525 v 2.052526 h -2.052525 z m -6.157576,0 h 2.052525 v 2.052526 h -2.052525 z m -6.157576,0 h 4.105051 v 2.052526 H 38.02593 Z m -6.157576,0 h 2.052525 v 2.052526 h -2.052525 z m -6.157576,0 h 2.052525 v 2.052526 h -2.052525 z m -4.105051,0 h 2.052526 v 2.052526 h -2.052526 z m -10.262626,0 h 2.052525 v 2.052526 H 11.343101 Z M 56.498658,44.37813 h 6.157575 v 2.052525 h -6.157575 z m -12.315152,0 h 6.157576 v 2.052525 h -6.157576 z m -8.210101,0 h 4.10505 v 2.052525 h -4.10505 z m -4.105051,0 h 2.052525 v 2.052525 h -2.052525 z m -10.262627,0 h 4.105051 v 2.052525 h -4.105051 z m -6.157575,0 h 4.10505 v 2.052525 h -4.10505 z m 45.155556,-2.052525 h 2.052525 v 2.052525 h -2.052525 z m -16.420202,0 h 6.157576 v 2.052525 h -6.157576 z m -6.157576,0 h 2.052525 V 44.37813 H 38.02593 Z m -12.315152,0 h 6.157576 v 2.052525 h -6.157576 z m -4.105051,0 h 2.052526 v 2.052525 h -2.052526 z m -4.10505,0 h 2.052525 v 2.052525 h -2.052525 z m -4.105051,0 h 2.052526 v 2.052525 h -2.052526 z m 38.997981,-2.052526 h 10.262626 v 2.052526 H 52.393607 Z m -4.105051,0 h 2.052526 v 2.052526 h -2.052526 z m -4.10505,0 h 2.052525 v 2.052526 h -2.052525 z m -10.262627,0 h 6.157576 v 2.052526 h -6.157576 z m -10.262626,0 h 4.10505 v 2.052526 h -4.10505 z m -4.105051,0 h 2.052525 v 2.052526 h -2.052525 z m -6.157576,0 h 4.105051 v 2.052526 h -4.105051 z m 28.735355,-2.052525 h 4.10505 v 2.052525 h -4.10505 z m -6.157576,0 h 4.10505 v 2.052525 h -4.10505 z m -8.210102,0 h 4.105051 v 2.052525 h -4.105051 z m 20.525253,-2.052525 h 14.367677 v 2.052525 H 48.288556 Z m -4.10505,0 h 2.052525 v 2.052525 h -2.052525 z m -4.105051,0 h 2.052526 v 2.052525 h -2.052526 z m -4.10505,0 h 2.052525 v 2.052525 h -2.052525 z m -4.105051,0 h 2.052525 v 2.052525 h -2.052525 z m -4.105051,0 h 2.052526 v 2.052525 h -2.052526 z m -16.420202,0 h 14.367677 v 2.052525 H 11.343101 Z m 49.260607,-2.052526 h 2.052525 v 2.052526 h -2.052525 z m -12.315152,0 h 2.052526 v 2.052526 h -2.052526 z m -6.157575,0 h 2.052525 v 2.052526 h -2.052525 z m -12.315152,0 h 8.210101 v 2.052526 h -8.210101 z m -6.157576,0 h 2.052525 v 2.052526 h -2.052525 z m -12.315152,0 h 2.052525 v 2.052526 h -2.052525 z m 49.260607,-2.052525 h 2.052525 v 2.052525 h -2.052525 z m -8.210101,0 h 6.157576 v 2.052525 h -6.157576 z m -4.105051,0 h 2.052526 v 2.052525 h -2.052526 z m -6.157575,0 h 4.10505 v 2.052525 h -4.10505 z m -6.157576,0 h 2.052525 v 2.052525 h -2.052525 z m -4.105051,0 h 2.052525 v 2.052525 h -2.052525 z m -4.105051,0 h 2.052526 v 2.052525 h -2.052526 z m -4.10505,0 h 2.052525 v 2.052525 h -2.052525 z m -8.210101,0 h 6.157575 v 2.052525 h -6.157575 z m -4.105051,0 h 2.052525 v 2.052525 h -2.052525 z m 49.260607,-2.052525 h 2.052525 v 2.052525 h -2.052525 z m -8.210101,0 h 6.157576 v 2.052525 h -6.157576 z m -4.105051,0 h 2.052526 v 2.052525 h -2.052526 z m -8.210101,0 h 2.052526 v 2.052525 h -2.052526 z m -4.10505,0 h 2.052525 v 2.052525 h -2.052525 z m -8.210102,0 h 6.157576 v 2.052525 h -6.157576 z m -4.10505,0 h 2.052525 v 2.052525 h -2.052525 z m -8.210101,0 h 6.157575 v 2.052525 h -6.157575 z m -4.105051,0 h 2.052525 v 2.052525 h -2.052525 z m 49.260607,-2.052525 h 2.052525 v 2.052525 h -2.052525 z m -8.210101,0 h 6.157576 v 2.052525 h -6.157576 z m -4.105051,0 h 2.052526 v 2.052525 h -2.052526 z m -6.157575,0 h 2.052525 v 2.052525 h -2.052525 z m -14.367678,0 h 8.210102 v 2.052525 h -8.210102 z m -4.10505,0 h 2.052525 v 2.052525 h -2.052525 z m -8.210101,0 h 6.157575 v 2.052525 h -6.157575 z m -4.105051,0 h 2.052525 v 2.052525 h -2.052525 z m 49.260607,-2.052526 h 2.052525 v 2.052526 h -2.052525 z m -12.315152,0 h 2.052526 v 2.052526 h -2.052526 z m -8.210101,0 h 4.105051 v 2.052526 h -4.105051 z m -6.157576,0 h 4.105051 v 2.052526 h -4.105051 z m -6.157576,0 h 2.052526 v 2.052526 h -2.052526 z m -4.10505,0 h 2.052525 v 2.052526 h -2.052525 z m -12.315152,0 h 2.052525 v 2.052526 h -2.052525 z m 36.945455,-2.052525 h 14.367677 v 2.052525 H 48.288556 Z m -10.262626,0 h 6.157576 v 2.052525 H 38.02593 Z m -4.105051,0 h 2.052526 v 2.052525 h -2.052526 z m -6.157576,0 h 2.052526 v 2.052525 h -2.052526 z m -16.420202,0 h 14.367677 v 2.052525 H 11.343101 Z"
         id="path2582"
         style="fill:#000000;stroke-width:2.05253;shape-rendering:crispEdges" /><text
         xml:space="preserve"
         style="font-size:10.5833px;line-height:1.25;font-family:Bav;-inkscape-font-specification:Bav;letter-spacing:0px;word-spacing:0px;stroke-width:0.264583"
         x="9.1764936"
         y="15.46443"
         id="text2598"><tspan
           sodipodi:role="line"
           id="tspan2596"
           style="font-style:normal;font-variant:normal;font-weight:600;font-stretch:normal;font-family:FreeSans;-inkscape-font-specification:'FreeSans Semi-Bold';stroke-width:0.264583"
           x="9.1764936"
           y="15.46443">listen in at:</tspan></text><text
         xml:space="preserve"
         style="font-size:9.31676px;line-height:1.25;font-family:Bav;-inkscape-font-specification:Bav;letter-spacing:0px;word-spacing:0px;stroke-width:0.264583"
         x="5.625802"
         y="90.102959"
         id="text401"><tspan
           sodipodi:role="line"
           id="tspan399"
           style="font-style:normal;font-variant:normal;font-weight:600;font-stretch:normal;font-family:FreeSans;-inkscape-font-specification:'FreeSans Semi-Bold';stroke-width:0.264583"
           x="5.625802"
           y="90.102959">freesound.org</tspan></text></g></g></svg>
